<?xml version="1.0" encoding="UTF-8" standalone="no"?>
<svg
   xmlns:dc="http://purl.org/dc/elements/1.1/"
   xmlns:cc="http://creativecommons.org/ns#"
   xmlns:rdf="http://www.w3.org/1999/02/22-rdf-syntax-ns#"
   xmlns:svg="http://www.w3.org/2000/svg"
   xmlns="http://www.w3.org/2000/svg"
   id="SVGRoot"
   version="1.1"
   viewBox="0 0 500 500"
   height="500px"
   width="500px">
  <defs
     id="defs955" />
  <metadata
     id="metadata958">
    <rdf:RDF>
      <cc:Work
         rdf:about="">
        <dc:format>image/svg+xml</dc:format>
        <dc:type
           rdf:resource="http://purl.org/dc/dcmitype/StillImage" />
        <dc:title></dc:title>
      </cc:Work>
    </rdf:RDF>
  </metadata>
  <rect
     ry="33.295292"
     rx="28.917377"
     y="20.8883"
     x="23.934523"
     height="450"
     width="450"
     id="rect978"
     style="fill:#333333;fill-opacity:1;stroke-width:1.04045" />
  <g
     id="layer4">
    <g
       transform="matrix(0.75099883,0,0,0.75099883,56.626403,56.794964)"
       style="fill:#ffffff"
       id="g59">
      <path
         style="opacity:1;fill:#ffffff"
         id="path57"
         d="M 354.132,375.377 V 136.623 c 13.008,-0.397 23.471,-11.095 23.471,-24.198 0,-12.182 -9.043,-22.288 -20.767,-23.968 C 350.305,38.334 307.27,0 256,0 c -21.039,0 -41.229,6.37 -58.387,18.422 -3.396,2.385 -4.216,7.072 -1.83,10.468 2.386,3.396 7.073,4.216 10.468,1.83 C 220.867,20.455 238.07,15.029 256,15.029 c 42.941,0 79.099,31.55 85.614,73.178 H 170.391 c 2.158,-13.794 7.606,-26.851 15.998,-38.145 2.475,-3.331 1.781,-8.039 -1.55,-10.514 -3.331,-2.475 -8.038,-1.782 -10.514,1.55 -10.373,13.96 -16.924,30.214 -19.158,47.359 -11.726,1.679 -20.769,11.785 -20.769,23.968 0,13.103 10.462,23.801 23.471,24.198 v 238.754 c -13.008,0.397 -23.471,11.095 -23.471,24.198 0,12.182 9.043,22.287 20.767,23.968 C 161.695,473.666 204.73,512 256,512 c 51.27,0 94.305,-38.334 100.835,-88.457 11.724,-1.68 20.767,-11.786 20.767,-23.968 0,-13.102 -10.462,-23.801 -23.47,-24.198 z M 250.91,333.58 c -2.934,-2.935 -7.693,-2.935 -10.627,0 l -41.778,41.778 H 172.899 V 349.71 L 339.103,183.505 v 51.254 l -77.565,77.565 c -2.736,2.736 -2.918,7.255 -0.399,10.196 2.81,3.282 7.97,3.488 11.026,0.431 l 66.938,-66.938 v 51.254 l -68.09,68.089 h -51.254 l 31.151,-31.151 c 2.934,-2.933 2.934,-7.691 0,-10.625 z m -31.215,-196.938 -46.797,46.797 v -46.797 z m 41.598,41.538 c 2.895,2.895 7.732,2.895 10.627,0 l 41.538,-41.538 h 25.645 v 25.61 L 172.898,328.456 v -51.254 l 77.768,-77.767 c 2.935,-2.934 2.935,-7.693 0,-10.627 -2.934,-2.936 -7.692,-2.935 -10.627,0 l -67.14,67.14 v -51.254 l 68.051,-68.051 h 51.254 l -30.91,30.911 c -2.936,2.933 -2.936,7.691 -10e-4,10.626 z m 77.809,150.343 v 46.835 H 292.266 Z M 149.427,112.425 c 0,-5.067 4.122,-9.188 9.188,-9.188 h 194.77 c 5.066,0 9.188,4.122 9.188,9.188 0,5.066 -4.122,9.188 -9.188,9.188 h -194.77 c -5.066,0 -9.188,-4.122 -9.188,-9.188 z M 256,496.971 c -42.941,0 -79.099,-31.551 -85.614,-73.178 H 341.614 C 335.099,465.42 298.941,496.971 256,496.971 Z m 97.385,-88.207 h -194.77 c -5.066,0 -9.188,-4.122 -9.188,-9.188 0,-5.066 4.122,-9.188 9.188,-9.188 h 194.77 c 5.066,0 9.188,4.122 9.188,9.188 0,5.066 -4.122,9.188 -9.188,9.188 z" />
    </g>
  </g>
</svg>
