<svg id="Capa_1" enable-background="new 0 0 512 512" height="512" viewBox="0 0 512 512" width="512" xmlns="http://www.w3.org/2000/svg"><g><path d="m354.132 375.377v-238.754c13.008-.397 23.471-11.095 23.471-24.198 0-12.182-9.043-22.288-20.767-23.968-6.531-50.123-49.566-88.457-100.836-88.457-21.039 0-41.229 6.37-58.387 18.422-3.396 2.385-4.216 7.072-1.83 10.468s7.073 4.216 10.468 1.83c14.616-10.265 31.819-15.691 49.749-15.691 42.941 0 79.099 31.55 85.614 73.178h-171.223c2.158-13.794 7.606-26.851 15.998-38.145 2.475-3.331 1.781-8.039-1.55-10.514s-8.038-1.782-10.514 1.55c-10.373 13.96-16.924 30.214-19.158 47.359-11.726 1.679-20.769 11.785-20.769 23.968 0 13.103 10.462 23.801 23.471 24.198v238.754c-13.008.397-23.471 11.095-23.471 24.198 0 12.182 9.043 22.287 20.767 23.968 6.53 50.123 49.565 88.457 100.835 88.457s94.305-38.334 100.835-88.457c11.724-1.68 20.767-11.786 20.767-23.968 0-13.102-10.462-23.801-23.47-24.198zm-103.222-41.797c-2.934-2.935-7.693-2.935-10.627 0l-41.778 41.778h-25.606v-25.648l166.204-166.205v51.254l-77.565 77.565c-2.736 2.736-2.918 7.255-.399 10.196 2.81 3.282 7.97 3.488 11.026.431l66.938-66.938v51.254l-68.09 68.089h-51.254l31.151-31.151c2.934-2.933 2.934-7.691 0-10.625zm-31.215-196.938-46.797 46.797v-46.797zm41.598 41.538c2.895 2.895 7.732 2.895 10.627 0l41.538-41.538h25.645v25.61l-166.205 166.204v-51.254l77.768-77.767c2.935-2.934 2.935-7.693 0-10.627-2.934-2.936-7.692-2.935-10.627 0l-67.14 67.14v-51.254l68.051-68.051h51.254l-30.91 30.911c-2.936 2.933-2.936 7.691-.001 10.626zm77.809 150.343v46.835h-46.836zm-189.675-216.098c0-5.067 4.122-9.188 9.188-9.188h194.77c5.066 0 9.188 4.122 9.188 9.188s-4.122 9.188-9.188 9.188h-194.77c-5.066 0-9.188-4.122-9.188-9.188zm106.573 384.546c-42.941 0-79.099-31.551-85.614-73.178h171.228c-6.515 41.627-42.673 73.178-85.614 73.178zm97.385-88.207h-194.77c-5.066 0-9.188-4.122-9.188-9.188s4.122-9.188 9.188-9.188h194.77c5.066 0 9.188 4.122 9.188 9.188s-4.122 9.188-9.188 9.188z"/></g></svg>