<?xml version="1.0" encoding="UTF-8" standalone="no"?>
<svg
   xmlns:dc="http://purl.org/dc/elements/1.1/"
   xmlns:cc="http://creativecommons.org/ns#"
   xmlns:rdf="http://www.w3.org/1999/02/22-rdf-syntax-ns#"
   xmlns:svg="http://www.w3.org/2000/svg"
   xmlns="http://www.w3.org/2000/svg"
   width="1000px"
   height="500px"
   viewBox="0 0 1000 500"
   version="1.1"
   id="SVGRoot">
  <defs
     id="defs1636" />
  <metadata
     id="metadata1639">
    <rdf:RDF>
      <cc:Work
         rdf:about="">
        <dc:format>image/svg+xml</dc:format>
        <dc:type
           rdf:resource="http://purl.org/dc/dcmitype/StillImage" />
        <dc:title></dc:title>
      </cc:Work>
    </rdf:RDF>
  </metadata>
  <g
     id="layer1">
    <rect
       style="fill:#c5262e;fill-opacity:1;stroke-width:1.04045"
       id="rect978"
       width="450"
       height="450"
       x="31.105955"
       y="23.221697"
       rx="28.917377"
       ry="33.295292" />
    <path
       style="fill:#ffffff;stroke-width:0.750999;fill-opacity:1"
       id="path57"
       d="M 329.75055,341.03605 V 161.73207 c 9.769,-0.29814 17.6267,-8.33233 17.6267,-18.17267 0,-9.14866 -6.79129,-16.73826 -15.596,-17.99994 -4.90477,-37.642311 -37.224,-66.4311 -75.72771,-66.4311 -15.80027,0 -30.96293,4.783863 -43.84857,13.8349 -2.55039,1.791133 -3.16621,5.311064 -1.37433,7.861456 1.79188,2.550392 5.31181,3.166211 7.86146,1.374328 10.97659,-7.709003 23.89603,-11.783923 37.36144,-11.783923 32.24864,0 59.40325,23.694014 64.29601,54.956589 H 191.76128 c 1.62065,-10.35927 5.71209,-20.16507 12.01448,-28.646847 1.85872,-2.501577 1.33753,-6.037279 -1.16405,-7.896001 -2.50158,-1.858722 -6.03653,-1.33828 -7.896,1.164048 -7.79011,10.48394 -12.70991,22.69068 -14.38764,35.56655 -8.80621,1.26093 -15.59749,8.85052 -15.59749,17.99994 0,9.84034 7.85695,17.87453 17.62669,18.17267 v 179.30398 c -9.76899,0.29814 -17.62669,8.33233 -17.62669,18.17267 0,9.14867 6.79128,16.73751 15.59599,17.99994 4.90402,37.64231 37.22326,66.4311 75.72697,66.4311 38.50371,0 70.82294,-28.78879 75.72696,-66.4311 8.80471,-1.26168 15.596,-8.85127 15.596,-17.99994 0,-9.83959 -7.85695,-17.87453 -17.62595,-18.17267 z m -77.5196,-31.3895 c -2.20343,-2.20418 -5.77743,-2.20418 -7.98086,0 l -31.37523,31.37523 H 193.64478 V 321.76016 L 318.46379,196.9404 v 38.49169 l -58.25122,58.25123 c -2.05473,2.05473 -2.19142,5.4485 -0.29965,7.65718 2.11031,2.46478 5.98546,2.61949 8.28051,0.32368 l 50.27036,-50.27036 v 38.4917 l -51.13551,51.13476 h -38.49169 l 23.39436,-23.39437 c 2.20343,-2.20268 2.20343,-5.77593 0,-7.97936 z m -23.44243,-147.90021 -35.14449,35.14449 v -35.14449 z m 31.24005,31.19499 c 2.17414,2.17414 5.80673,2.17414 7.98087,0 l 31.19499,-31.19499 h 19.25936 v 19.23308 L 193.64403,305.79843 v -38.49169 l 58.40368,-58.40293 c 2.20418,-2.20343 2.20418,-5.77743 0,-7.98086 -2.20343,-2.20494 -5.77668,-2.20418 -7.98087,0 l -50.42206,50.42206 v -38.4917 L 244.751,161.74709 h 38.4917 l -23.21338,23.21413 c -2.20493,2.20268 -2.20493,5.77593 -7.5e-4,7.98011 z m 58.43447,112.90742 v 35.17303 H 283.28926 Z M 176.01734,143.5594 c 0,-3.80531 3.09562,-6.90017 6.90018,-6.90017 h 146.27204 c 3.80456,0 6.90017,3.09561 6.90017,6.90017 0,3.80456 -3.09561,6.90018 -6.90017,6.90018 H 182.91752 c -3.80456,0 -6.90018,-3.09562 -6.90018,-6.90018 z m 80.0362,288.7936 c -32.24864,0 -59.40326,-23.69476 -64.29602,-54.95659 h 128.59203 c -4.89276,31.26183 -32.04737,54.95659 -64.29601,54.95659 z m 73.13602,-66.24335 H 182.91752 c -3.80456,0 -6.90018,-3.09562 -6.90018,-6.90018 0,-3.80456 3.09562,-6.90018 6.90018,-6.90018 h 146.27204 c 3.80456,0 6.90017,3.09562 6.90017,6.90018 0,3.80456 -3.09561,6.90018 -6.90017,6.90018 z" />
    <text
       id="text1688"
       y="271.79901"
       x="501.94528"
       style="font-style:normal;font-weight:normal;font-size:119.258px;line-height:1.25;font-family:sans-serif;letter-spacing:-2.7951px;fill:#c5262e;fill-opacity:1;stroke:none;stroke-width:1.39755;"
       xml:space="preserve"><tspan
         style="font-style:normal;font-variant:normal;font-weight:bold;font-stretch:normal;font-size:119.258px;font-family:FreeSans;-inkscape-font-specification:'FreeSans Bold';fill:#c5262e;fill-opacity:1;stroke-width:1.39755;"
         y="271.79901"
         x="501.94528"
         id="tspan1686">BarberS</tspan></text>
    <rect
       y="288.87302"
       x="509.82776"
       height="7.8792987"
       width="440.55994"
       id="rect1696"
       style="fill:#c5262e;stroke-width:0.749689;fill-opacity:1" />
  </g>
</svg>
